<svg width="30" height="37" viewBox="0 0 30 37" fill="none" xmlns="http://www.w3.org/2000/svg">
<path d="M0 16.5571V16.4697C0.85301 15.9447 0.962371 15.1792 0.962371 13.6263V2.93086C0.962371 1.29045 0.85301 0.612418 0 0.0656166V0H4.37441V0.0656166C3.5214 0.612418 3.41204 1.29045 3.41204 2.93086V8.1364L9.23001 2.05597C9.95179 1.29045 10.4767 0.568674 10.8704 0H13.6263V0.196849C12.642 0.524929 12.0296 0.918626 11.3297 1.61853L6.12418 6.8897L13.8013 16.404V16.5571H11.0673L4.72436 8.33325L3.41204 9.66745V13.6263C3.41204 15.1792 3.5214 15.9447 4.37441 16.4697V16.5571H0Z" fill="#828180" fill-opacity="0.95" style="fill:#828180;fill:color(display-p3 0.5098 0.5059 0.5020);fill-opacity:0.95;"/>
<path d="M13.7908 16.4915C14.5564 16.0103 15.1688 15.3542 15.6281 14.02L20.1994 1.46543C20.3962 0.874883 20.4181 0.437441 20.2431 0H22.7365L28.0296 14.1075C28.467 15.3104 28.9044 16.0103 29.6481 16.4697V16.5571H24.88V16.4915C25.733 16.0103 25.7986 15.3104 25.383 14.1293L24.4644 11.461H18.0121L17.0935 14.0856C16.6561 15.3761 16.6998 16.0322 17.4435 16.4915V16.5571H13.7908V16.4915ZM18.384 10.3674H24.0707L21.2273 2.18721L18.384 10.3674Z" fill="#828180" fill-opacity="0.95" style="fill:#828180;fill:color(display-p3 0.5098 0.5059 0.5020);fill-opacity:0.95;"/>
<path d="M0 36.5571V36.4697C0.85301 35.9447 0.962371 35.1792 0.962371 33.6263V22.9309C0.962371 21.2905 0.85301 20.6124 0 20.0656V20H4.37441V20.0656C3.5214 20.6124 3.41204 21.2905 3.41204 22.9309V28.1364L9.23001 22.056C9.95179 21.2905 10.4767 20.5687 10.8704 20H13.6263V20.1968C12.642 20.5249 12.0296 20.9186 11.3297 21.6185L6.12418 26.8897L13.8013 36.404V36.5571H11.0673L4.72436 28.3333L3.41204 29.6674V33.6263C3.41204 35.1792 3.5214 35.9447 4.37441 36.4697V36.5571H0Z" fill="#828180" fill-opacity="0.95" style="fill:#828180;fill:color(display-p3 0.5098 0.5059 0.5020);fill-opacity:0.95;"/>
<path d="M13.7908 36.4915C14.5564 36.0103 15.1688 35.3542 15.6281 34.02L20.1994 21.4654C20.3962 20.8749 20.4181 20.4374 20.2431 20H22.7365L28.0296 34.1075C28.467 35.3104 28.9044 36.0103 29.6481 36.4697V36.5571H24.88V36.4915C25.733 36.0103 25.7986 35.3104 25.383 34.1293L24.4644 31.461H18.0121L17.0935 34.0856C16.6561 35.3761 16.6998 36.0322 17.4435 36.4915V36.5571H13.7908V36.4915ZM18.384 30.3674H24.0707L21.2273 22.1872L18.384 30.3674Z" fill="#828180" fill-opacity="0.95" style="fill:#828180;fill:color(display-p3 0.5098 0.5059 0.5020);fill-opacity:0.95;"/>
</svg>
