<svg width="339" height="50" viewBox="0 0 339 50" fill="none" xmlns="http://www.w3.org/2000/svg">
<g opacity="0.5">
<g clip-path="url(#clip0_116_312)">
<mask id="path-1-inside-1_116_312" fill="white">
<path d="M0 0H339V50H0V0Z"/>
</mask>
<path d="M0 0H339V50H0V0Z" fill="#7D1128" style="fill:#7D1128;fill:color(display-p3 0.4902 0.0667 0.1569);fill-opacity:1;"/>
<line x1="28.2236" y1="38.304" x2="310.752" y2="38.304" stroke="#EACDC2" style="stroke:#EACDC2;stroke:color(display-p3 0.9176 0.8039 0.7608);stroke-opacity:1;" stroke-width="1.728"/>
<path d="M28.7248 31.565C28.886 31.4671 28.9897 31.3404 29.0358 31.1849C29.0819 31.0236 29.1049 30.7759 29.1049 30.4418V26.2169C29.1049 25.8713 29.0819 25.6236 29.0358 25.4738C28.9897 25.3183 28.886 25.1887 28.7248 25.085V25.0591H30.9712C32.6934 25.0591 33.5545 25.6236 33.5545 26.7526C33.5545 27.3574 33.3068 27.8066 32.8115 28.1004C32.3219 28.3884 31.648 28.5324 30.7897 28.5324H30.0726V30.4418C30.0726 30.7759 30.0956 31.0236 30.1417 31.1849C30.1936 31.3404 30.3001 31.4671 30.4614 31.565V31.5996H28.7248V31.565ZM30.7379 28.109C31.3196 28.109 31.7718 27.9996 32.0944 27.7807C32.4169 27.5618 32.5782 27.2191 32.5782 26.7526C32.5782 25.9058 32.0195 25.4825 30.902 25.4825H30.0726V28.109H30.7379ZM35.6613 31.7292C34.7627 31.7292 34.3134 31.2022 34.3134 30.1481V28.5324C34.3134 28.1868 34.2904 27.9391 34.2443 27.7894C34.204 27.6338 34.1118 27.5042 33.9678 27.4006V27.3746H35.2984C35.2581 27.4841 35.2293 27.6194 35.212 27.7807C35.2005 27.942 35.1947 28.1926 35.1947 28.5324V30.0703C35.1947 30.4562 35.2638 30.7414 35.4021 30.9257C35.5461 31.1042 35.7621 31.1935 36.0501 31.1935C36.3726 31.1935 36.6405 31.0812 36.8536 30.8566C37.0667 30.6262 37.2107 30.3238 37.2856 29.9494V28.5324C37.2856 28.1868 37.2625 27.9391 37.2165 27.7894C37.1761 27.6338 37.084 27.5042 36.94 27.4006V27.3746H38.2705C38.2302 27.4841 38.2014 27.6194 38.1841 27.7807C38.1726 27.942 38.1669 28.1926 38.1669 28.5324V30.4418C38.1669 30.7702 38.187 31.015 38.2273 31.1762C38.2734 31.3375 38.3656 31.4671 38.5038 31.565V31.5996H37.1733C37.2136 31.4902 37.2424 31.3634 37.2597 31.2194C37.2769 31.0697 37.2856 30.8537 37.2856 30.5714C37.1473 30.9055 36.9371 31.182 36.6549 31.4009C36.3784 31.6198 36.0472 31.7292 35.6613 31.7292ZM39.1752 31.565C39.3249 31.4671 39.4229 31.3404 39.4689 31.1849C39.515 31.0236 39.5381 30.7759 39.5381 30.4418V26.0182C39.5381 25.7302 39.5179 25.5142 39.4776 25.3702C39.443 25.2204 39.3653 25.0994 39.2443 25.0073V24.9814L40.4193 24.8345L40.4712 24.8604C40.4481 24.9871 40.4337 25.1254 40.428 25.2751C40.4222 25.4249 40.4193 25.6726 40.4193 26.0182V28.3423C40.5576 27.9967 40.7592 27.726 41.0241 27.5302C41.2949 27.3286 41.6232 27.2278 42.0091 27.2278C42.372 27.2278 42.6859 27.3228 42.9509 27.5129C43.2158 27.703 43.4174 27.965 43.5557 28.2991C43.6939 28.6332 43.763 29.0105 43.763 29.431C43.763 29.863 43.6881 30.2489 43.5384 30.5887C43.3886 30.9286 43.1726 31.1964 42.8904 31.3922C42.6139 31.5823 42.2913 31.6774 41.9227 31.6774C41.6001 31.6774 41.3064 31.6082 41.0414 31.47C40.7822 31.326 40.5777 31.1244 40.428 30.8652C40.428 31.1186 40.4453 31.3634 40.4798 31.5996H39.1752V31.565ZM40.4193 30.39C40.5403 30.655 40.7073 30.8652 40.9205 31.0207C41.1393 31.1705 41.3784 31.2454 41.6376 31.2454C42.0235 31.2454 42.323 31.0841 42.5361 30.7615C42.755 30.4332 42.8645 29.9926 42.8645 29.4396C42.8645 28.9327 42.7665 28.5209 42.5707 28.2041C42.3806 27.8873 42.0926 27.7289 41.7067 27.7289C41.3035 27.7289 40.9867 27.9017 40.7563 28.2473C40.5317 28.5871 40.4193 29.0278 40.4193 29.5692V30.3554V30.39ZM44.4484 31.565C44.5982 31.4671 44.6961 31.3404 44.7422 31.1849C44.7882 31.0236 44.8113 30.7759 44.8113 30.4418V26.0095C44.8113 25.7388 44.7882 25.5314 44.7422 25.3874C44.7018 25.2377 44.6183 25.1138 44.4916 25.0159V24.9814L45.7444 24.8345L45.753 24.869C45.73 25.0073 45.7127 25.1513 45.7012 25.301C45.6954 25.4508 45.6926 25.687 45.6926 26.0095V30.4418C45.6926 30.7759 45.7127 31.0236 45.753 31.1849C45.7991 31.3404 45.897 31.4671 46.0468 31.565V31.5996H44.4484V31.565ZM46.7354 31.565C46.8794 31.4671 46.9715 31.3404 47.0119 31.1849C47.0579 31.0236 47.081 30.7759 47.081 30.4418L47.0896 28.5151C47.0896 28.1695 47.0695 27.9247 47.0291 27.7807C46.9946 27.631 46.9111 27.51 46.7786 27.4178V27.3833L47.9709 27.3228V30.4418C47.9709 30.7702 47.9911 31.015 48.0314 31.1762C48.0775 31.3375 48.1725 31.4671 48.3165 31.565V31.5996H46.7354V31.565ZM47.0637 25.3356H47.9795V26.3119H47.0637V25.3356ZM51.1301 31.7465C50.7211 31.7465 50.3583 31.6572 50.0415 31.4786C49.7247 31.2943 49.4741 31.0322 49.2898 30.6924C49.1112 30.3468 49.0219 29.9465 49.0219 29.4914C49.0219 29.0249 49.1141 28.6217 49.2984 28.2818C49.4885 27.9362 49.7477 27.6742 50.076 27.4956C50.4101 27.317 50.7845 27.2278 51.1992 27.2278C51.5736 27.2278 51.9019 27.2998 52.1842 27.4438C52.4722 27.582 52.7026 27.775 52.8754 28.0226C53.0482 28.2646 53.1547 28.5353 53.1951 28.8348H52.4002C52.3483 28.495 52.2274 28.2098 52.0373 27.9794C51.853 27.749 51.5794 27.6338 51.2165 27.6338C50.796 27.6338 50.4706 27.7922 50.2402 28.109C50.0155 28.4258 49.9032 28.8434 49.9032 29.3618C49.9032 29.9033 50.0213 30.3468 50.2575 30.6924C50.4994 31.038 50.8565 31.2108 51.3288 31.2108C51.7263 31.2108 52.0431 31.0898 52.2792 30.8479C52.5154 30.606 52.6738 30.2806 52.7544 29.8716H53.221C53.1403 30.4303 52.9186 30.8825 52.5557 31.2281C52.1986 31.5737 51.7234 31.7465 51.1301 31.7465ZM56.2985 31.565C56.4598 31.4671 56.5635 31.3404 56.6095 31.1849C56.6556 31.0236 56.6787 30.7759 56.6787 30.4418V26.2169C56.6787 25.8713 56.6556 25.6236 56.6095 25.4738C56.5635 25.3183 56.4598 25.1887 56.2985 25.085V25.0591H60.6185V25.8367C60.1577 25.7158 59.7574 25.6265 59.4175 25.5689C59.0777 25.5113 58.7407 25.4825 58.4067 25.4825H57.6463V27.8239H58.0265C58.5564 27.8239 59.2591 27.7922 60.1347 27.7289V28.3423C59.2591 28.279 58.5564 28.2473 58.0265 28.2473H57.6463V30.4418C57.6463 30.7759 57.6694 31.0236 57.7155 31.1849C57.7673 31.3404 57.8739 31.4671 58.0351 31.565V31.5996H56.2985V31.565ZM61.104 31.565C61.2538 31.4671 61.3517 31.3404 61.3978 31.1849C61.4439 31.0236 61.4669 30.7759 61.4669 30.4418V26.0095C61.4669 25.7388 61.4439 25.5314 61.3978 25.3874C61.3575 25.2377 61.274 25.1138 61.1472 25.0159V24.9814L62.4 24.8345L62.4087 24.869C62.3856 25.0073 62.3684 25.1513 62.3568 25.301C62.3511 25.4508 62.3482 25.687 62.3482 26.0095V30.4418C62.3482 30.7759 62.3684 31.0236 62.4087 31.1849C62.4548 31.3404 62.5527 31.4671 62.7024 31.565V31.5996H61.104V31.565ZM65.6028 31.7465C65.1593 31.7465 64.7705 31.6514 64.4364 31.4614C64.1024 31.2713 63.8432 31.0063 63.6588 30.6665C63.4803 30.3266 63.391 29.9321 63.391 29.4828C63.391 29.0335 63.4803 28.639 63.6588 28.2991C63.8432 27.9593 64.1024 27.6972 64.4364 27.5129C64.7705 27.3228 65.1593 27.2278 65.6028 27.2278C66.0464 27.2278 66.4352 27.3228 66.7692 27.5129C67.1033 27.6972 67.3596 27.9593 67.5382 28.2991C67.7225 28.639 67.8147 29.0335 67.8147 29.4828C67.8147 29.9321 67.7225 30.3266 67.5382 30.6665C67.3596 31.0063 67.1033 31.2713 66.7692 31.4614C66.4352 31.6514 66.0464 31.7465 65.6028 31.7465ZM64.2809 29.4828C64.2809 30.0646 64.3961 30.5196 64.6265 30.8479C64.8627 31.1762 65.191 31.3404 65.6115 31.3404C66.0204 31.3404 66.3401 31.1762 66.5705 30.8479C66.8067 30.5196 66.9248 30.0646 66.9248 29.4828C66.9248 28.8953 66.8096 28.4402 66.5792 28.1177C66.3488 27.7951 66.0262 27.6338 65.6115 27.6338C65.191 27.6338 64.8627 27.7951 64.6265 28.1177C64.3961 28.4402 64.2809 28.8953 64.2809 29.4828ZM70.7328 31.7465C70.2893 31.7465 69.9005 31.6514 69.5664 31.4614C69.2324 31.2713 68.9732 31.0063 68.7888 30.6665C68.6103 30.3266 68.521 29.9321 68.521 29.4828C68.521 29.0335 68.6103 28.639 68.7888 28.2991C68.9732 27.9593 69.2324 27.6972 69.5664 27.5129C69.9005 27.3228 70.2893 27.2278 70.7328 27.2278C71.1764 27.2278 71.5652 27.3228 71.8992 27.5129C72.2333 27.6972 72.4896 27.9593 72.6682 28.2991C72.8525 28.639 72.9447 29.0335 72.9447 29.4828C72.9447 29.9321 72.8525 30.3266 72.6682 30.6665C72.4896 31.0063 72.2333 31.2713 71.8992 31.4614C71.5652 31.6514 71.1764 31.7465 70.7328 31.7465ZM69.4109 29.4828C69.4109 30.0646 69.5261 30.5196 69.7565 30.8479C69.9927 31.1762 70.321 31.3404 70.7415 31.3404C71.1504 31.3404 71.4701 31.1762 71.7005 30.8479C71.9367 30.5196 72.0548 30.0646 72.0548 29.4828C72.0548 28.8953 71.9396 28.4402 71.7092 28.1177C71.4788 27.7951 71.1562 27.6338 70.7415 27.6338C70.321 27.6338 69.9927 27.7951 69.7565 28.1177C69.5261 28.4402 69.4109 28.8953 69.4109 29.4828ZM73.651 31.565C73.795 31.4671 73.89 31.3375 73.9361 31.1762C73.9822 31.015 74.0052 30.7702 74.0052 30.4418V28.5324C74.0052 28.1926 73.9822 27.9449 73.9361 27.7894C73.89 27.6338 73.795 27.5042 73.651 27.4006V27.3746H75.0075C74.9556 27.4841 74.9211 27.6194 74.9038 27.7807C74.8923 27.942 74.8865 28.1926 74.8865 28.5324V28.6188C74.9384 28.3999 75.0392 28.1868 75.1889 27.9794C75.3387 27.7721 75.5374 27.6022 75.7851 27.4697C76.0385 27.3314 76.3294 27.2623 76.6577 27.2623V28.0313C76.0644 28.0082 75.6209 28.1263 75.3272 28.3855C75.0334 28.6447 74.8865 28.9903 74.8865 29.4223V30.4764C74.8865 30.8047 74.9096 31.0466 74.9556 31.2022C75.0017 31.3519 75.1054 31.4758 75.2667 31.5737V31.5996H73.651V31.565ZM78.9694 31.7465C78.3934 31.7465 77.924 31.6082 77.5611 31.3318C77.204 31.0553 76.9937 30.678 76.9304 30.1999H77.7339C77.7742 30.5628 77.898 30.8422 78.1054 31.038C78.3185 31.2338 78.6094 31.3318 78.978 31.3318C79.2488 31.3318 79.4676 31.277 79.6347 31.1676C79.8017 31.0582 79.8852 30.9026 79.8852 30.701C79.8852 30.5513 79.842 30.4303 79.7556 30.3382C79.675 30.2402 79.554 30.1538 79.3928 30.079C79.2315 29.9983 78.978 29.8946 78.6324 29.7679C78.3156 29.6527 78.0564 29.5433 77.8548 29.4396C77.6532 29.3302 77.4891 29.1919 77.3624 29.0249C77.2356 28.8578 77.1723 28.6534 77.1723 28.4114C77.1723 28.0543 77.322 27.7692 77.6216 27.5561C77.9211 27.3372 78.3128 27.2278 78.7966 27.2278C79.3035 27.2278 79.7153 27.3401 80.0321 27.5647C80.3547 27.7894 80.5563 28.1033 80.6369 28.5065H79.8248C79.7902 28.2358 79.6836 28.0226 79.5051 27.8671C79.3323 27.7116 79.0846 27.6338 78.762 27.6338C78.5144 27.6338 78.3156 27.6857 78.1659 27.7894C78.0219 27.893 77.9499 28.0342 77.9499 28.2127C77.9499 28.4201 78.0392 28.5842 78.2177 28.7052C78.3963 28.8262 78.7073 28.9644 79.1508 29.1199C79.5022 29.2466 79.7844 29.3676 79.9976 29.4828C80.2107 29.598 80.3777 29.7391 80.4987 29.9062C80.6196 30.0674 80.6801 30.269 80.6801 30.511C80.6801 30.9084 80.5188 31.2137 80.1963 31.4268C79.8795 31.6399 79.4705 31.7465 78.9694 31.7465Z" fill="#EACDC2" style="fill:#EACDC2;fill:color(display-p3 0.9176 0.8039 0.7608);fill-opacity:1;"/>
<path d="M130.668 29.5996H126.633V23.5516H130.564V24.2082H127.419V26.1868H130.426V26.8521H127.419V28.9343H130.668V29.5996ZM132.105 29.5996H131.241L132.805 27.4655L131.328 25.4351H132.235L133.047 26.6361C133.125 26.7484 133.203 26.8521 133.272 26.9558L133.479 26.6447L134.309 25.4351H135.173L133.661 27.4655L135.233 29.5996H134.335L133.453 28.3122C133.384 28.1999 133.306 28.0876 133.22 27.9753C133.142 28.0876 133.064 28.1999 132.995 28.3122L132.105 29.5996ZM136.738 29.5996H135.995V23.5516H136.738V25.6425V25.9967C136.963 25.5993 137.456 25.2969 138.017 25.2969C138.976 25.2969 139.555 25.9017 139.555 26.973V29.5996H138.812V27.0681C138.812 26.2818 138.544 25.8844 137.87 25.8844C137.162 25.8844 136.738 26.4374 136.738 27.094V29.5996ZM140.71 24.6489V23.759H141.574V24.6489H140.71ZM140.78 25.4351H141.523V29.5996H140.78V25.4351ZM144.904 29.7292C144.325 29.7292 143.807 29.4441 143.548 29.0207V29.375V29.5996H142.805V23.5516H143.548V25.6598V25.9967C143.815 25.6252 144.291 25.2969 144.921 25.2969C146.131 25.2969 146.839 26.2473 146.839 27.5174C146.839 28.822 146.079 29.7292 144.904 29.7292ZM144.783 29.1503C145.552 29.1503 146.062 28.485 146.062 27.5174C146.062 26.5583 145.561 25.8844 144.783 25.8844C144.031 25.8844 143.504 26.4978 143.504 27.5087C143.504 28.485 144.031 29.1503 144.783 29.1503ZM147.773 24.6489V23.759H148.637V24.6489H147.773ZM147.842 25.4351H148.585V29.5996H147.842V25.4351ZM151.344 29.6687C150.722 29.6687 150.16 29.3663 150.16 28.4418V26.0486H149.383V25.4351H150.16V24.0614H150.904V25.4351H151.768V26.0486H150.904V28.3641C150.904 28.8479 151.145 29.0034 151.517 29.0034C151.621 29.0034 151.707 28.9948 151.828 28.9775V29.6169C151.672 29.6514 151.517 29.6687 151.344 29.6687ZM152.649 24.6489V23.759H153.513V24.6489H152.649ZM152.719 25.4351H153.462V29.5996H152.719V25.4351ZM156.523 29.7292C155.322 29.7292 154.476 28.8393 154.476 27.5087C154.476 26.2127 155.322 25.2969 156.523 25.2969C157.716 25.2969 158.571 26.2127 158.571 27.5087C158.571 28.8393 157.716 29.7292 156.523 29.7292ZM156.523 29.1503C157.318 29.1503 157.802 28.485 157.802 27.5087C157.802 26.5324 157.301 25.8844 156.523 25.8844C155.746 25.8844 155.245 26.5324 155.245 27.5087C155.245 28.485 155.729 29.1503 156.523 29.1503ZM160.321 29.5996H159.578V25.4351H160.313V25.7202V25.9967C160.537 25.6338 161.038 25.2969 161.6 25.2969C162.559 25.2969 163.138 25.9017 163.138 26.973V29.5996H162.395V27.0681C162.395 26.2818 162.136 25.8844 161.479 25.8844C160.753 25.8844 160.321 26.4374 160.321 27.094V29.5996ZM165.822 29.7292C164.699 29.7292 164.051 29.1158 164.034 28.2258H164.76C164.786 28.7874 165.166 29.1503 165.831 29.1503C166.401 29.1503 166.79 28.8911 166.79 28.4678C166.79 28.1394 166.566 27.9234 166.064 27.8284L165.434 27.7074C164.656 27.5606 164.164 27.1631 164.164 26.5238C164.164 25.8153 164.838 25.2969 165.779 25.2969C166.782 25.2969 167.386 25.7894 167.438 26.6361H166.704C166.643 26.135 166.289 25.8844 165.727 25.8844C165.226 25.8844 164.907 26.1263 164.907 26.4806C164.907 26.8175 165.149 26.9817 165.615 27.0681L166.263 27.189C167.015 27.3273 167.525 27.6988 167.525 28.39C167.525 29.133 166.885 29.7292 165.822 29.7292ZM171.773 29.7292C170.978 29.7292 170.339 29.2454 170.339 28.4591C170.339 27.6556 170.978 27.2754 171.721 27.1631L172.611 27.0249C172.931 26.973 173.034 26.8607 173.034 26.6102C173.034 26.1522 172.68 25.8844 172.196 25.8844C171.557 25.8844 171.229 26.2214 171.211 26.7398H170.468C170.494 25.9794 171.09 25.2969 172.136 25.2969C173.173 25.2969 173.76 25.9103 173.76 26.8694V29.5996H173.052V29.3922V29.038C172.844 29.47 172.395 29.7292 171.773 29.7292ZM171.877 29.1503C172.542 29.1503 173.034 28.701 173.034 28.0271V27.4137C172.982 27.4914 172.827 27.5519 172.576 27.5951L171.972 27.7074C171.479 27.8025 171.108 28.0185 171.108 28.4591C171.108 28.8911 171.453 29.1503 171.877 29.1503ZM175.728 29.5996H174.985V25.4351H175.72V25.7202V25.9967C175.944 25.6338 176.445 25.2969 177.007 25.2969C177.966 25.2969 178.545 25.9017 178.545 26.973V29.5996H177.802V27.0681C177.802 26.2818 177.543 25.8844 176.886 25.8844C176.16 25.8844 175.728 26.4374 175.728 27.094V29.5996ZM181.419 29.7292C180.331 29.7292 179.501 28.9343 179.501 27.5174C179.501 26.2559 180.253 25.2969 181.437 25.2969C182.128 25.2969 182.586 25.677 182.776 25.9967V25.6598V23.5516H183.519V29.5996H182.776V29.3577V29.0207C182.551 29.4095 182.042 29.7292 181.419 29.7292ZM181.549 29.1503C182.292 29.1503 182.828 28.511 182.828 27.5087C182.828 26.5151 182.301 25.8844 181.549 25.8844C180.797 25.8844 180.27 26.541 180.27 27.5174C180.27 28.4937 180.789 29.1503 181.549 29.1503ZM191.813 29.5996H190.941L190.249 27.8025H187.537L186.845 29.5996H186.016L188.435 23.5516H189.385L191.813 29.5996ZM188.72 24.7266L187.787 27.1458H189.999L189.066 24.7266C189.005 24.5711 188.953 24.4156 188.893 24.2687C188.841 24.4156 188.781 24.5711 188.72 24.7266ZM193.236 29.5996H192.493V25.4351H193.236V25.7634V25.9967C193.487 25.5906 193.91 25.2969 194.454 25.2969C194.999 25.2969 195.465 25.5647 195.707 26.1177C195.992 25.6338 196.467 25.2969 197.064 25.2969C197.902 25.2969 198.524 25.8239 198.524 26.9644V29.5996H197.781V27.1113C197.781 26.325 197.547 25.8844 196.908 25.8844C196.251 25.8844 195.88 26.4546 195.88 27.1199V29.5996H195.137V27.1372C195.137 26.3423 194.895 25.8844 194.281 25.8844C193.633 25.8844 193.236 26.4633 193.236 27.1545V29.5996ZM201.503 29.7292C200.259 29.7292 199.481 28.943 199.481 27.5001C199.481 26.2214 200.319 25.2969 201.46 25.2969C202.704 25.2969 203.387 26.1695 203.387 27.5087V27.6556H200.224C200.242 28.606 200.795 29.1503 201.512 29.1503C202.022 29.1503 202.505 28.9516 202.609 28.3122H203.343C203.257 29.0466 202.687 29.7292 201.503 29.7292ZM200.25 27.1286H202.592C202.592 26.3855 202.186 25.8844 201.46 25.8844C200.76 25.8844 200.302 26.4287 200.25 27.1286ZM205.15 29.5996H204.407V25.4351H205.141V25.7202V25.9967C205.366 25.6338 205.867 25.2969 206.428 25.2969C207.388 25.2969 207.966 25.9017 207.966 26.973V29.5996H207.223V27.0681C207.223 26.2818 206.964 25.8844 206.308 25.8844C205.582 25.8844 205.15 26.4374 205.15 27.094V29.5996ZM209.122 24.6489V23.759H209.986V24.6489H209.122ZM209.191 25.4351H209.934V29.5996H209.191V25.4351ZM212.693 29.6687C212.071 29.6687 211.51 29.3663 211.51 28.4418V26.0486H210.732V25.4351H211.51V24.0614H212.253V25.4351H213.117V26.0486H212.253V28.3641C212.253 28.8479 212.494 29.0034 212.866 29.0034C212.97 29.0034 213.056 28.9948 213.177 28.9775V29.6169C213.022 29.6514 212.866 29.6687 212.693 29.6687ZM213.999 24.6489V23.759H214.863V24.6489H213.999ZM214.068 25.4351H214.811V29.5996H214.068V25.4351ZM217.847 29.7292C216.602 29.7292 215.825 28.943 215.825 27.5001C215.825 26.2214 216.663 25.2969 217.803 25.2969C219.048 25.2969 219.73 26.1695 219.73 27.5087V27.6556H216.568C216.585 28.606 217.138 29.1503 217.855 29.1503C218.365 29.1503 218.849 28.9516 218.952 28.3122H219.687C219.6 29.0466 219.03 29.7292 217.847 29.7292ZM216.594 27.1286H218.935C218.935 26.3855 218.529 25.8844 217.803 25.8844C217.104 25.8844 216.646 26.4287 216.594 27.1286ZM222.21 29.7292C221.087 29.7292 220.439 29.1158 220.422 28.2258H221.148C221.174 28.7874 221.554 29.1503 222.219 29.1503C222.789 29.1503 223.178 28.8911 223.178 28.4678C223.178 28.1394 222.953 27.9234 222.452 27.8284L221.822 27.7074C221.044 27.5606 220.551 27.1631 220.551 26.5238C220.551 25.8153 221.225 25.2969 222.167 25.2969C223.169 25.2969 223.774 25.7894 223.826 26.6361H223.092C223.031 26.135 222.677 25.8844 222.115 25.8844C221.614 25.8844 221.294 26.1263 221.294 26.4806C221.294 26.8175 221.536 26.9817 222.003 27.0681L222.651 27.189C223.403 27.3273 223.912 27.6988 223.912 28.39C223.912 29.133 223.273 29.7292 222.21 29.7292ZM224.866 31.0166V30.5327C225.134 30.455 225.316 30.2908 225.316 29.7292V29.5996H224.858V28.5974H225.843V29.6946C225.843 30.5586 225.445 30.9302 224.866 31.0166ZM230.993 29.7292C229.524 29.7292 228.565 28.9343 228.548 27.6556H229.351C229.403 28.5282 230.042 29.0726 231.001 29.0726C231.995 29.0726 232.539 28.6319 232.539 27.9753C232.539 27.3964 232.055 27.1372 231.338 26.973L230.44 26.7657C229.515 26.5497 228.755 26.0226 228.755 25.0982C228.755 24.1218 229.688 23.4134 230.967 23.4134C232.271 23.4134 233.144 24.1218 233.213 25.245H232.41C232.358 24.5279 231.796 24.0786 230.949 24.0786C230.163 24.0786 229.584 24.4761 229.584 25.029C229.584 25.5474 229.93 25.8585 230.638 26.0226L231.71 26.2646C232.669 26.4892 233.369 27.0076 233.369 27.9234C233.369 28.917 232.479 29.7292 230.993 29.7292ZM235.103 31.3967H234.36V25.4351H235.103V25.7375V26.0054C235.336 25.6338 235.855 25.2969 236.477 25.2969C237.678 25.2969 238.395 26.2386 238.395 27.5087C238.395 28.8306 237.608 29.7292 236.459 29.7292C235.863 29.7292 235.371 29.4441 235.103 29.0207V29.3663V31.3967ZM236.347 29.1503C237.116 29.1503 237.617 28.4764 237.617 27.5087C237.617 26.5497 237.116 25.8844 236.347 25.8844C235.595 25.8844 235.06 26.5151 235.06 27.5087C235.06 28.485 235.587 29.1503 236.347 29.1503ZM240.148 29.5996H239.405V25.4351H240.148V25.6166V26.1263C240.356 25.6511 240.814 25.2969 241.453 25.2969C241.505 25.2969 241.574 25.2969 241.643 25.3055V26.0399C241.583 26.0313 241.514 26.0226 241.41 26.0226C240.606 26.0226 240.148 26.4719 240.148 27.3964V29.5996ZM242.332 24.6489V23.759H243.196V24.6489H242.332ZM242.401 25.4351H243.144V29.5996H242.401V25.4351ZM245.169 29.5996H244.426V25.4351H245.16V25.7202V25.9967C245.385 25.6338 245.886 25.2969 246.448 25.2969C247.407 25.2969 247.985 25.9017 247.985 26.973V29.5996H247.242V27.0681C247.242 26.2818 246.983 25.8844 246.327 25.8844C245.601 25.8844 245.169 26.4374 245.169 27.094V29.5996ZM250.946 31.5263C249.849 31.5263 249.132 30.9129 249.132 29.997H249.866C249.866 30.5586 250.281 30.9474 250.955 30.9474C251.733 30.9474 252.208 30.5414 252.208 29.6514V29.1417V28.8652C251.992 29.2886 251.456 29.5564 250.843 29.5564C249.694 29.5564 248.951 28.727 248.951 27.4396C248.951 26.1609 249.771 25.2969 250.869 25.2969C251.56 25.2969 251.992 25.6511 252.208 25.9967V25.6598V25.4351H252.951V29.3922C252.951 30.8178 252.277 31.5263 250.946 31.5263ZM250.99 28.9775C251.733 28.9775 252.26 28.3641 252.26 27.4396C252.26 26.5324 251.733 25.8844 250.99 25.8844C250.238 25.8844 249.72 26.5151 249.72 27.4396C249.72 28.3727 250.238 28.9775 250.99 28.9775ZM260.151 29.5996H256.039C256.039 28.822 256.358 28.3122 257.3 27.5951L258.121 26.9644C258.631 26.567 259.261 26.014 259.261 25.245C259.261 24.5538 258.838 24.0354 258.112 24.0354C257.378 24.0354 256.877 24.5538 256.877 25.5474V25.6598H256.099V25.461C256.099 24.165 256.98 23.4134 258.112 23.4134C259.235 23.4134 260.047 24.1132 260.047 25.2364C260.047 26.1436 259.503 26.7916 258.363 27.6556L257.939 27.9753C257.378 28.3986 257.041 28.6838 256.98 28.9084H260.151V29.5996ZM265.053 29.5996H260.941C260.941 28.822 261.26 28.3122 262.202 27.5951L263.023 26.9644C263.533 26.567 264.163 26.014 264.163 25.245C264.163 24.5538 263.74 24.0354 263.014 24.0354C262.28 24.0354 261.779 24.5538 261.779 25.5474V25.6598H261.001V25.461C261.001 24.165 261.882 23.4134 263.014 23.4134C264.138 23.4134 264.95 24.1132 264.95 25.2364C264.95 26.1436 264.405 26.7916 263.265 27.6556L262.842 27.9753C262.28 28.3986 261.943 28.6838 261.882 28.9084H265.053V29.5996ZM270.295 26.8953H268.049V26.2646H270.295V26.8953ZM275.432 29.5996H274.464L272.823 23.5516H273.635L274.81 27.9494C274.879 28.174 274.94 28.4073 275 28.6492C275.061 28.4332 275.147 28.1567 275.199 27.9494L276.383 23.5516H277.368L278.534 27.9494C278.603 28.174 278.672 28.4332 278.724 28.6578C278.793 28.4159 278.854 28.1826 278.914 27.9494L280.115 23.5516H280.884L279.242 29.5996H278.283L277.082 25.0722C277.013 24.8044 276.936 24.5366 276.866 24.2687L276.659 25.0722L275.432 29.5996ZM281.583 24.6489V23.759H282.447V24.6489H281.583ZM281.652 25.4351H282.395V29.5996H281.652V25.4351ZM284.42 29.5996H283.677V25.4351H284.411V25.7202V25.9967C284.636 25.6338 285.137 25.2969 285.699 25.2969C286.658 25.2969 287.237 25.9017 287.237 26.973V29.5996H286.494V27.0681C286.494 26.2818 286.234 25.8844 285.578 25.8844C284.852 25.8844 284.42 26.4374 284.42 27.094V29.5996ZM289.896 29.6687C289.274 29.6687 288.713 29.3663 288.713 28.4418V26.0486H287.935V25.4351H288.713V24.0614H289.456V25.4351H290.32V26.0486H289.456V28.3641C289.456 28.8479 289.698 29.0034 290.069 29.0034C290.173 29.0034 290.259 28.9948 290.38 28.9775V29.6169C290.225 29.6514 290.069 29.6687 289.896 29.6687ZM292.974 29.7292C291.73 29.7292 290.952 28.943 290.952 27.5001C290.952 26.2214 291.79 25.2969 292.931 25.2969C294.175 25.2969 294.858 26.1695 294.858 27.5087V27.6556H291.695C291.713 28.606 292.266 29.1503 292.983 29.1503C293.492 29.1503 293.976 28.9516 294.08 28.3122H294.814C294.728 29.0466 294.158 29.7292 292.974 29.7292ZM291.721 27.1286H294.063C294.063 26.3855 293.657 25.8844 292.931 25.8844C292.231 25.8844 291.773 26.4287 291.721 27.1286ZM296.621 29.5996H295.878V25.4351H296.621V25.6166V26.1263C296.828 25.6511 297.286 25.2969 297.925 25.2969C297.977 25.2969 298.046 25.2969 298.115 25.3055V26.0399C298.055 26.0313 297.986 26.0226 297.882 26.0226C297.079 26.0226 296.621 26.4719 296.621 27.3964V29.5996ZM304.575 29.5996H300.462C300.462 28.822 300.782 28.3122 301.723 27.5951L302.544 26.9644C303.054 26.567 303.685 26.014 303.685 25.245C303.685 24.5538 303.261 24.0354 302.536 24.0354C301.801 24.0354 301.3 24.5538 301.3 25.5474V25.6598H300.522V25.461C300.522 24.165 301.404 23.4134 302.536 23.4134C303.659 23.4134 304.471 24.1132 304.471 25.2364C304.471 26.1436 303.927 26.7916 302.786 27.6556L302.363 27.9753C301.801 28.3986 301.464 28.6838 301.404 28.9084H304.575V29.5996ZM307.386 29.7292C306.142 29.7292 305.364 29.0207 305.364 27.9839H306.142C306.142 28.6665 306.591 29.1158 307.36 29.1158C308.233 29.1158 308.742 28.5282 308.742 27.6297C308.742 26.7743 308.276 26.1782 307.464 26.1782C306.824 26.1782 306.323 26.6274 306.185 26.9817H305.459L305.9 23.5516H309.192V24.2428H306.47L306.271 25.7721C306.254 25.893 306.237 26.0831 306.22 26.2214C306.522 25.8239 307.058 25.5647 307.645 25.5647C308.76 25.5647 309.529 26.446 309.529 27.5778C309.529 28.8393 308.682 29.7292 307.386 29.7292Z" fill="#EACDC2" style="fill:#EACDC2;fill:color(display-p3 0.9176 0.8039 0.7608);fill-opacity:1;"/>
</g>
<path d="M0 0V-1.8H-1.8V0H0ZM339 0H340.8V-1.8H339V0ZM0 1.8H339V-1.8H0V1.8ZM337.2 0V50H340.8V0H337.2ZM1.8 50V0H-1.8V50H1.8Z" fill="#EACDC2" style="fill:#EACDC2;fill:color(display-p3 0.9176 0.8039 0.7608);fill-opacity:1;" mask="url(#path-1-inside-1_116_312)"/>
</g>
<defs>
<clipPath id="clip0_116_312">
<path d="M0 0H339V50H0V0Z" fill="white" style="fill:white;fill-opacity:1;"/>
</clipPath>
</defs>
</svg>
